<svg xmlns="http://www.w3.org/2000/svg" viewBox="0 0 500 500"><defs><style>.cls-1{fill:#e33c13;}.cls-2{fill:#302e2e;}.cls-3{fill:none;stroke:#ecebea;stroke-miterlimit:10;}</style></defs><g id="OBJECTS"><path class="cls-1" d="M322.11,322.15H167.73a67.43,67.43,0,0,1,0-134.85h55.73v9.54H167.73a57.89,57.89,0,0,0,0,115.77H322.11Z"/><path class="cls-1" d="M296.94,304.17H169.74a49.45,49.45,0,0,1,0-98.89h76.65v9.54H169.74a39.91,39.91,0,0,0,0,79.81h127.2Z"/><path class="cls-1" d="M261.83,286.2H171.76a31.48,31.48,0,1,1,0-62.95h84.86v9.54H171.76a21.94,21.94,0,1,0,0,43.87h90.07Z"/><path class="cls-2" d="M258.12,166.56c10.33,13.07,23.33,36.16,38.93,39.11,13.58,2.57,33.82,0,47.25,7.38.09-4.91,0-9-.57-11-1.88-6.78-6.46-2-6.46-2S319.4,196.19,305.8,187s-12.73-33.89-14.37-37.37c-.75-1.59-4.84-2.34-9.05-2.69a46.3,46.3,0,0,0-18.17,2.18,119.23,119.23,0,0,0-21.4,9.08C247.37,158.37,253.09,160.2,258.12,166.56Z"/><path class="cls-2" d="M371.14,277.51a29.69,29.69,0,0,0-8.43-2.33,18.49,18.49,0,0,1-15.09-13.47L345,252.15l2.5,2.46c2.39,2.32,4.83,4.58,7.4,6.7a21.25,21.25,0,0,0,7.84,4.54c2.73.73,5.51-.33,6-3.34.45-2.51-.73-5.09-1.77-7.3A39.79,39.79,0,0,0,357,241.9c-3.8-3.26-8.74-6.41-13.88-7,.19-2.34.39-5,.57-7.91-16.33-7.78-38.95-9.47-56.71-9.33,12.73,27.76,39.09,90.47,59,92.81,14.35,1.69,22.14-3.57,26.75-7a10.82,10.82,0,0,0,4.3-9C376.78,288.24,375.69,279.71,371.14,277.51Zm-9.26-24.57a34.45,34.45,0,0,1,3,6.26,5.22,5.22,0,0,1,.43,2.49c-.2,1.18-1.45.63-2.28.31a20.76,20.76,0,0,1-6-3.91c-2.13-1.8-4.18-3.7-6.18-5.64q-3.39-3.27-6.63-6.7c-.37-.39-.73-.79-1.08-1.19a27,27,0,0,1-.28-6.6v-.05C350.8,239.4,357.86,246.29,361.88,252.94Z"/><path class="cls-2" d="M338.16,319c-1.36-.61-2.8-1.32-4.25-2.13-7.39-4.15-38.6-34.8-44.08-37.84s-27.92-5.52-34.22-3.59,0,12.71,0,12.71c7.16,13.42,19.25,21.82,30.75,26.95-16.76,0-37.88,1.87-54.63,3.72a1.79,1.79,0,0,0,.21,3.57h105.5A1.77,1.77,0,0,0,338.16,319Z"/><path class="cls-2" d="M281.07,260S269,225.45,256.16,208.32s-34.23-31.2-44.63-33.14c-7-1.29-12.34,3-13.15,12.12h12.31l8.06,9.54H199a60.65,60.65,0,0,0,1.88,7.34c.12.36.26.73.38,1.1H223l8.07,9.54H205.52c1.46,2.74,3.13,5.57,4.93,8.42h26.08l8.06,9.54H216.9c10.45,14.49,22.53,27.47,26.94,29.4,6.29,2.76,23,3.59,30.66,3S281.07,260,281.07,260Z"/><path class="cls-3" d="M299.25,217.67a397.51,397.51,0,0,0,27.33,63.44c4.51,8.36,9.94,17.12,18.77,20.61,10.64,4.19,22.63-.65,32.41-6.57"/><path class="cls-3" d="M251.41,152c12.37-8.8,34.34,33.4,44.72,54.81"/><path class="cls-3" d="M343.09,261a28.13,28.13,0,0,0,24.53,19.82"/></g></svg>